G75*
%MOIN*%
%OFA0B0*%
%FSLAX25Y25*%
%IPPOS*%
%LPD*%
%AMOC8*
5,1,8,0,0,1.08239X$1,22.5*
%
%ADD10C,0.00000*%
%ADD11R,0.04331X0.03937*%
%ADD12C,0.06500*%
%ADD13R,0.06500X0.06500*%
%ADD14C,0.05200*%
%ADD15R,0.07400X0.07400*%
%ADD16OC8,0.11811*%
%ADD17C,0.07400*%
%ADD18OC8,0.07500*%
%ADD19C,0.10000*%
%ADD20C,0.08858*%
%ADD21C,0.02000*%
%ADD22C,0.01000*%
D10*
X0001000Y0001000D02*
X0001000Y0151201D01*
X0200921Y0151201D01*
X0200921Y0001000D01*
X0001000Y0001000D01*
X0023677Y0100921D02*
X0023679Y0101029D01*
X0023685Y0101138D01*
X0023695Y0101246D01*
X0023709Y0101353D01*
X0023727Y0101460D01*
X0023748Y0101567D01*
X0023774Y0101672D01*
X0023804Y0101777D01*
X0023837Y0101880D01*
X0023874Y0101982D01*
X0023915Y0102082D01*
X0023959Y0102181D01*
X0024008Y0102279D01*
X0024059Y0102374D01*
X0024114Y0102467D01*
X0024173Y0102559D01*
X0024235Y0102648D01*
X0024300Y0102735D01*
X0024368Y0102819D01*
X0024439Y0102901D01*
X0024513Y0102980D01*
X0024590Y0103056D01*
X0024670Y0103130D01*
X0024753Y0103200D01*
X0024838Y0103268D01*
X0024925Y0103332D01*
X0025015Y0103393D01*
X0025107Y0103451D01*
X0025201Y0103505D01*
X0025297Y0103556D01*
X0025394Y0103603D01*
X0025494Y0103647D01*
X0025595Y0103687D01*
X0025697Y0103723D01*
X0025800Y0103755D01*
X0025905Y0103784D01*
X0026011Y0103808D01*
X0026117Y0103829D01*
X0026224Y0103846D01*
X0026332Y0103859D01*
X0026440Y0103868D01*
X0026549Y0103873D01*
X0026657Y0103874D01*
X0026766Y0103871D01*
X0026874Y0103864D01*
X0026982Y0103853D01*
X0027089Y0103838D01*
X0027196Y0103819D01*
X0027302Y0103796D01*
X0027407Y0103770D01*
X0027512Y0103739D01*
X0027614Y0103705D01*
X0027716Y0103667D01*
X0027816Y0103625D01*
X0027915Y0103580D01*
X0028012Y0103531D01*
X0028106Y0103478D01*
X0028199Y0103422D01*
X0028290Y0103363D01*
X0028379Y0103300D01*
X0028465Y0103235D01*
X0028549Y0103166D01*
X0028630Y0103094D01*
X0028708Y0103019D01*
X0028784Y0102941D01*
X0028857Y0102860D01*
X0028927Y0102777D01*
X0028993Y0102692D01*
X0029057Y0102604D01*
X0029117Y0102513D01*
X0029174Y0102421D01*
X0029227Y0102326D01*
X0029277Y0102230D01*
X0029323Y0102132D01*
X0029366Y0102032D01*
X0029405Y0101931D01*
X0029440Y0101828D01*
X0029472Y0101725D01*
X0029499Y0101620D01*
X0029523Y0101514D01*
X0029543Y0101407D01*
X0029559Y0101300D01*
X0029571Y0101192D01*
X0029579Y0101084D01*
X0029583Y0100975D01*
X0029583Y0100867D01*
X0029579Y0100758D01*
X0029571Y0100650D01*
X0029559Y0100542D01*
X0029543Y0100435D01*
X0029523Y0100328D01*
X0029499Y0100222D01*
X0029472Y0100117D01*
X0029440Y0100014D01*
X0029405Y0099911D01*
X0029366Y0099810D01*
X0029323Y0099710D01*
X0029277Y0099612D01*
X0029227Y0099516D01*
X0029174Y0099421D01*
X0029117Y0099329D01*
X0029057Y0099238D01*
X0028993Y0099150D01*
X0028927Y0099065D01*
X0028857Y0098982D01*
X0028784Y0098901D01*
X0028708Y0098823D01*
X0028630Y0098748D01*
X0028549Y0098676D01*
X0028465Y0098607D01*
X0028379Y0098542D01*
X0028290Y0098479D01*
X0028199Y0098420D01*
X0028107Y0098364D01*
X0028012Y0098311D01*
X0027915Y0098262D01*
X0027816Y0098217D01*
X0027716Y0098175D01*
X0027614Y0098137D01*
X0027512Y0098103D01*
X0027407Y0098072D01*
X0027302Y0098046D01*
X0027196Y0098023D01*
X0027089Y0098004D01*
X0026982Y0097989D01*
X0026874Y0097978D01*
X0026766Y0097971D01*
X0026657Y0097968D01*
X0026549Y0097969D01*
X0026440Y0097974D01*
X0026332Y0097983D01*
X0026224Y0097996D01*
X0026117Y0098013D01*
X0026011Y0098034D01*
X0025905Y0098058D01*
X0025800Y0098087D01*
X0025697Y0098119D01*
X0025595Y0098155D01*
X0025494Y0098195D01*
X0025394Y0098239D01*
X0025297Y0098286D01*
X0025201Y0098337D01*
X0025107Y0098391D01*
X0025015Y0098449D01*
X0024925Y0098510D01*
X0024838Y0098574D01*
X0024753Y0098642D01*
X0024670Y0098712D01*
X0024590Y0098786D01*
X0024513Y0098862D01*
X0024439Y0098941D01*
X0024368Y0099023D01*
X0024300Y0099107D01*
X0024235Y0099194D01*
X0024173Y0099283D01*
X0024114Y0099375D01*
X0024059Y0099468D01*
X0024008Y0099563D01*
X0023959Y0099661D01*
X0023915Y0099760D01*
X0023874Y0099860D01*
X0023837Y0099962D01*
X0023804Y0100065D01*
X0023774Y0100170D01*
X0023748Y0100275D01*
X0023727Y0100382D01*
X0023709Y0100489D01*
X0023695Y0100596D01*
X0023685Y0100704D01*
X0023679Y0100813D01*
X0023677Y0100921D01*
X0043362Y0120606D02*
X0043364Y0120714D01*
X0043370Y0120823D01*
X0043380Y0120931D01*
X0043394Y0121038D01*
X0043412Y0121145D01*
X0043433Y0121252D01*
X0043459Y0121357D01*
X0043489Y0121462D01*
X0043522Y0121565D01*
X0043559Y0121667D01*
X0043600Y0121767D01*
X0043644Y0121866D01*
X0043693Y0121964D01*
X0043744Y0122059D01*
X0043799Y0122152D01*
X0043858Y0122244D01*
X0043920Y0122333D01*
X0043985Y0122420D01*
X0044053Y0122504D01*
X0044124Y0122586D01*
X0044198Y0122665D01*
X0044275Y0122741D01*
X0044355Y0122815D01*
X0044438Y0122885D01*
X0044523Y0122953D01*
X0044610Y0123017D01*
X0044700Y0123078D01*
X0044792Y0123136D01*
X0044886Y0123190D01*
X0044982Y0123241D01*
X0045079Y0123288D01*
X0045179Y0123332D01*
X0045280Y0123372D01*
X0045382Y0123408D01*
X0045485Y0123440D01*
X0045590Y0123469D01*
X0045696Y0123493D01*
X0045802Y0123514D01*
X0045909Y0123531D01*
X0046017Y0123544D01*
X0046125Y0123553D01*
X0046234Y0123558D01*
X0046342Y0123559D01*
X0046451Y0123556D01*
X0046559Y0123549D01*
X0046667Y0123538D01*
X0046774Y0123523D01*
X0046881Y0123504D01*
X0046987Y0123481D01*
X0047092Y0123455D01*
X0047197Y0123424D01*
X0047299Y0123390D01*
X0047401Y0123352D01*
X0047501Y0123310D01*
X0047600Y0123265D01*
X0047697Y0123216D01*
X0047791Y0123163D01*
X0047884Y0123107D01*
X0047975Y0123048D01*
X0048064Y0122985D01*
X0048150Y0122920D01*
X0048234Y0122851D01*
X0048315Y0122779D01*
X0048393Y0122704D01*
X0048469Y0122626D01*
X0048542Y0122545D01*
X0048612Y0122462D01*
X0048678Y0122377D01*
X0048742Y0122289D01*
X0048802Y0122198D01*
X0048859Y0122106D01*
X0048912Y0122011D01*
X0048962Y0121915D01*
X0049008Y0121817D01*
X0049051Y0121717D01*
X0049090Y0121616D01*
X0049125Y0121513D01*
X0049157Y0121410D01*
X0049184Y0121305D01*
X0049208Y0121199D01*
X0049228Y0121092D01*
X0049244Y0120985D01*
X0049256Y0120877D01*
X0049264Y0120769D01*
X0049268Y0120660D01*
X0049268Y0120552D01*
X0049264Y0120443D01*
X0049256Y0120335D01*
X0049244Y0120227D01*
X0049228Y0120120D01*
X0049208Y0120013D01*
X0049184Y0119907D01*
X0049157Y0119802D01*
X0049125Y0119699D01*
X0049090Y0119596D01*
X0049051Y0119495D01*
X0049008Y0119395D01*
X0048962Y0119297D01*
X0048912Y0119201D01*
X0048859Y0119106D01*
X0048802Y0119014D01*
X0048742Y0118923D01*
X0048678Y0118835D01*
X0048612Y0118750D01*
X0048542Y0118667D01*
X0048469Y0118586D01*
X0048393Y0118508D01*
X0048315Y0118433D01*
X0048234Y0118361D01*
X0048150Y0118292D01*
X0048064Y0118227D01*
X0047975Y0118164D01*
X0047884Y0118105D01*
X0047792Y0118049D01*
X0047697Y0117996D01*
X0047600Y0117947D01*
X0047501Y0117902D01*
X0047401Y0117860D01*
X0047299Y0117822D01*
X0047197Y0117788D01*
X0047092Y0117757D01*
X0046987Y0117731D01*
X0046881Y0117708D01*
X0046774Y0117689D01*
X0046667Y0117674D01*
X0046559Y0117663D01*
X0046451Y0117656D01*
X0046342Y0117653D01*
X0046234Y0117654D01*
X0046125Y0117659D01*
X0046017Y0117668D01*
X0045909Y0117681D01*
X0045802Y0117698D01*
X0045696Y0117719D01*
X0045590Y0117743D01*
X0045485Y0117772D01*
X0045382Y0117804D01*
X0045280Y0117840D01*
X0045179Y0117880D01*
X0045079Y0117924D01*
X0044982Y0117971D01*
X0044886Y0118022D01*
X0044792Y0118076D01*
X0044700Y0118134D01*
X0044610Y0118195D01*
X0044523Y0118259D01*
X0044438Y0118327D01*
X0044355Y0118397D01*
X0044275Y0118471D01*
X0044198Y0118547D01*
X0044124Y0118626D01*
X0044053Y0118708D01*
X0043985Y0118792D01*
X0043920Y0118879D01*
X0043858Y0118968D01*
X0043799Y0119060D01*
X0043744Y0119153D01*
X0043693Y0119248D01*
X0043644Y0119346D01*
X0043600Y0119445D01*
X0043559Y0119545D01*
X0043522Y0119647D01*
X0043489Y0119750D01*
X0043459Y0119855D01*
X0043433Y0119960D01*
X0043412Y0120067D01*
X0043394Y0120174D01*
X0043380Y0120281D01*
X0043370Y0120389D01*
X0043364Y0120498D01*
X0043362Y0120606D01*
X0023677Y0140291D02*
X0023679Y0140399D01*
X0023685Y0140508D01*
X0023695Y0140616D01*
X0023709Y0140723D01*
X0023727Y0140830D01*
X0023748Y0140937D01*
X0023774Y0141042D01*
X0023804Y0141147D01*
X0023837Y0141250D01*
X0023874Y0141352D01*
X0023915Y0141452D01*
X0023959Y0141551D01*
X0024008Y0141649D01*
X0024059Y0141744D01*
X0024114Y0141837D01*
X0024173Y0141929D01*
X0024235Y0142018D01*
X0024300Y0142105D01*
X0024368Y0142189D01*
X0024439Y0142271D01*
X0024513Y0142350D01*
X0024590Y0142426D01*
X0024670Y0142500D01*
X0024753Y0142570D01*
X0024838Y0142638D01*
X0024925Y0142702D01*
X0025015Y0142763D01*
X0025107Y0142821D01*
X0025201Y0142875D01*
X0025297Y0142926D01*
X0025394Y0142973D01*
X0025494Y0143017D01*
X0025595Y0143057D01*
X0025697Y0143093D01*
X0025800Y0143125D01*
X0025905Y0143154D01*
X0026011Y0143178D01*
X0026117Y0143199D01*
X0026224Y0143216D01*
X0026332Y0143229D01*
X0026440Y0143238D01*
X0026549Y0143243D01*
X0026657Y0143244D01*
X0026766Y0143241D01*
X0026874Y0143234D01*
X0026982Y0143223D01*
X0027089Y0143208D01*
X0027196Y0143189D01*
X0027302Y0143166D01*
X0027407Y0143140D01*
X0027512Y0143109D01*
X0027614Y0143075D01*
X0027716Y0143037D01*
X0027816Y0142995D01*
X0027915Y0142950D01*
X0028012Y0142901D01*
X0028106Y0142848D01*
X0028199Y0142792D01*
X0028290Y0142733D01*
X0028379Y0142670D01*
X0028465Y0142605D01*
X0028549Y0142536D01*
X0028630Y0142464D01*
X0028708Y0142389D01*
X0028784Y0142311D01*
X0028857Y0142230D01*
X0028927Y0142147D01*
X0028993Y0142062D01*
X0029057Y0141974D01*
X0029117Y0141883D01*
X0029174Y0141791D01*
X0029227Y0141696D01*
X0029277Y0141600D01*
X0029323Y0141502D01*
X0029366Y0141402D01*
X0029405Y0141301D01*
X0029440Y0141198D01*
X0029472Y0141095D01*
X0029499Y0140990D01*
X0029523Y0140884D01*
X0029543Y0140777D01*
X0029559Y0140670D01*
X0029571Y0140562D01*
X0029579Y0140454D01*
X0029583Y0140345D01*
X0029583Y0140237D01*
X0029579Y0140128D01*
X0029571Y0140020D01*
X0029559Y0139912D01*
X0029543Y0139805D01*
X0029523Y0139698D01*
X0029499Y0139592D01*
X0029472Y0139487D01*
X0029440Y0139384D01*
X0029405Y0139281D01*
X0029366Y0139180D01*
X0029323Y0139080D01*
X0029277Y0138982D01*
X0029227Y0138886D01*
X0029174Y0138791D01*
X0029117Y0138699D01*
X0029057Y0138608D01*
X0028993Y0138520D01*
X0028927Y0138435D01*
X0028857Y0138352D01*
X0028784Y0138271D01*
X0028708Y0138193D01*
X0028630Y0138118D01*
X0028549Y0138046D01*
X0028465Y0137977D01*
X0028379Y0137912D01*
X0028290Y0137849D01*
X0028199Y0137790D01*
X0028107Y0137734D01*
X0028012Y0137681D01*
X0027915Y0137632D01*
X0027816Y0137587D01*
X0027716Y0137545D01*
X0027614Y0137507D01*
X0027512Y0137473D01*
X0027407Y0137442D01*
X0027302Y0137416D01*
X0027196Y0137393D01*
X0027089Y0137374D01*
X0026982Y0137359D01*
X0026874Y0137348D01*
X0026766Y0137341D01*
X0026657Y0137338D01*
X0026549Y0137339D01*
X0026440Y0137344D01*
X0026332Y0137353D01*
X0026224Y0137366D01*
X0026117Y0137383D01*
X0026011Y0137404D01*
X0025905Y0137428D01*
X0025800Y0137457D01*
X0025697Y0137489D01*
X0025595Y0137525D01*
X0025494Y0137565D01*
X0025394Y0137609D01*
X0025297Y0137656D01*
X0025201Y0137707D01*
X0025107Y0137761D01*
X0025015Y0137819D01*
X0024925Y0137880D01*
X0024838Y0137944D01*
X0024753Y0138012D01*
X0024670Y0138082D01*
X0024590Y0138156D01*
X0024513Y0138232D01*
X0024439Y0138311D01*
X0024368Y0138393D01*
X0024300Y0138477D01*
X0024235Y0138564D01*
X0024173Y0138653D01*
X0024114Y0138745D01*
X0024059Y0138838D01*
X0024008Y0138933D01*
X0023959Y0139031D01*
X0023915Y0139130D01*
X0023874Y0139230D01*
X0023837Y0139332D01*
X0023804Y0139435D01*
X0023774Y0139540D01*
X0023748Y0139645D01*
X0023727Y0139752D01*
X0023709Y0139859D01*
X0023695Y0139966D01*
X0023685Y0140074D01*
X0023679Y0140183D01*
X0023677Y0140291D01*
D11*
X0082654Y0141000D03*
X0089346Y0141000D03*
X0147654Y0011000D03*
X0154346Y0011000D03*
D12*
X0150921Y0126000D03*
X0185921Y0126000D03*
D13*
X0176079Y0126000D03*
X0141079Y0126000D03*
D14*
X0116000Y0051000D03*
X0116000Y0041000D03*
X0116000Y0031000D03*
X0116000Y0021000D03*
X0086000Y0021000D03*
X0086000Y0031000D03*
X0086000Y0041000D03*
X0086000Y0051000D03*
D15*
X0091157Y0078441D03*
X0101000Y0078441D03*
X0110843Y0078441D03*
D16*
X0118323Y0106000D03*
X0083677Y0106000D03*
D17*
X0021000Y0046000D03*
X0021000Y0036000D03*
X0021000Y0026000D03*
X0186000Y0011000D03*
X0186000Y0041000D03*
D18*
X0186000Y0067000D03*
X0186000Y0085000D03*
D19*
X0026630Y0120606D03*
D20*
X0046315Y0111157D03*
X0046315Y0100528D03*
X0046315Y0130055D03*
X0046315Y0140685D03*
D21*
X0027000Y0120500D02*
X0026630Y0120606D01*
X0027000Y0120500D02*
X0027000Y0112000D01*
X0038500Y0100500D01*
X0038500Y0031000D01*
X0086000Y0031000D01*
X0086000Y0021000D01*
X0086000Y0011000D01*
X0147654Y0011000D01*
X0148500Y0011500D01*
X0148500Y0014000D01*
X0185500Y0051000D01*
X0185500Y0066500D01*
X0186000Y0067000D01*
X0151000Y0102000D01*
X0151000Y0126000D01*
X0150921Y0126000D01*
D22*
X0185921Y0126000D02*
X0186000Y0126000D01*
X0186000Y0085000D01*
X0116000Y0073000D02*
X0116000Y0051000D01*
X0116000Y0073000D02*
X0111000Y0078000D01*
X0110843Y0078441D01*
X0091157Y0078441D02*
X0091000Y0078000D01*
X0086000Y0073000D01*
X0086000Y0051000D01*
X0081500Y0045500D02*
X0086000Y0041000D01*
X0081500Y0045500D02*
X0081500Y0078500D01*
X0091500Y0088500D01*
X0091500Y0109000D01*
X0089500Y0111000D01*
X0089500Y0141000D01*
X0089346Y0141000D01*
X0082654Y0141000D02*
X0046500Y0141000D01*
X0046315Y0140685D01*
X0046500Y0140500D01*
X0046500Y0130500D01*
X0046315Y0130055D01*
X0154346Y0011000D02*
X0186000Y0011000D01*
M02*
