%
M48
M72
T01C0.02756
T02C0.03200
T03C0.03543
T04C0.03937
T05C0.04000
T06C0.05906
T07C0.07874
%
T01
X141079Y126000
X150921Y126000
X176079Y126000
X185921Y126000
T02
X116000Y51000
X116000Y41000
X116000Y31000
X116000Y21000
X86000Y21000
X86000Y31000
X86000Y41000
X86000Y51000
T03
X186000Y41000
X186000Y11000
T04
X110843Y78441
X101000Y78441
X91157Y78441
T05
X21000Y26000
X21000Y36000
X21000Y46000
X186000Y67000
X186000Y85000
T06
X46315Y100528
X46315Y111157
X46315Y120606
X46315Y130055
X46315Y140685
X26630Y140291
X26630Y120606
X26630Y100921
T07
X83677Y106000
X118323Y106000
M30
