G75*
%MOIN*%
%OFA0B0*%
%FSLAX25Y25*%
%IPPOS*%
%LPD*%
%AMOC8*
5,1,8,0,0,1.08239X$1,22.5*
%
%ADD10C,0.06500*%
%ADD11R,0.06500X0.06500*%
%ADD12C,0.05200*%
%ADD13R,0.07400X0.07400*%
%ADD14OC8,0.11811*%
%ADD15C,0.07400*%
%ADD16OC8,0.07500*%
%ADD17C,0.10000*%
%ADD18C,0.08858*%
%ADD19C,0.01000*%
D10*
X0150921Y0126000D03*
X0185921Y0126000D03*
D11*
X0176079Y0126000D03*
X0141079Y0126000D03*
D12*
X0116000Y0051000D03*
X0116000Y0041000D03*
X0116000Y0031000D03*
X0116000Y0021000D03*
X0086000Y0021000D03*
X0086000Y0031000D03*
X0086000Y0041000D03*
X0086000Y0051000D03*
D13*
X0091157Y0078441D03*
X0101000Y0078441D03*
X0110843Y0078441D03*
D14*
X0118323Y0106000D03*
X0083677Y0106000D03*
D15*
X0021000Y0026000D03*
X0021000Y0036000D03*
X0021000Y0046000D03*
X0186000Y0041000D03*
X0186000Y0011000D03*
D16*
X0186000Y0067000D03*
X0186000Y0085000D03*
D17*
X0026630Y0120606D03*
D18*
X0046315Y0111157D03*
X0046315Y0100528D03*
X0046315Y0130055D03*
X0046315Y0140685D03*
D19*
X0141000Y0126000D02*
X0141000Y0098500D01*
X0087750Y0045250D01*
X0102000Y0031000D01*
X0116000Y0031000D01*
X0116000Y0021000D02*
X0166000Y0021000D01*
X0186000Y0041000D01*
X0185500Y0041000D01*
X0176500Y0050000D01*
X0176500Y0126000D01*
X0176079Y0126000D01*
X0141079Y0126000D02*
X0141000Y0126000D01*
X0087000Y0046000D02*
X0021000Y0046000D01*
X0087000Y0046000D02*
X0087750Y0045250D01*
M02*
